Coordinates
nRows=477
nColumns=2
inDegrees=yes
endheader
time	ankle_angle_r	
3.59274	 18.733246	
3.62601	 18.692017	
3.65927	 18.697565	
3.69254	 18.753052	
3.72581	 18.728277	
3.75907	 18.697855	
3.79234	 18.728470	
3.8256	 18.737793	
3.85887	 18.695147	
3.89214	 18.728760	
3.9254	 18.753052	
3.95867	 18.713696	
3.99194	 18.731277	
4.0252	 18.744406	
4.05847	 18.715824	
4.09173	 18.729340	
4.125	 18.729437	
4.15827	 18.699017	
4.19153	 18.738859	
4.2248	 18.714468	
4.25806	 18.707275	
4.29133	 18.722048	
4.3246	 18.691723	
4.35786	 18.699696	
4.39113	 18.730211	
4.4244	 18.661787	
4.45766	 18.661018	
4.49093	 18.715916	
4.52419	 18.683954	
4.55746	 18.646240	
4.59073	 18.653242	
4.62399	 18.647688	
4.65726	 18.646240	
4.69052	 18.676758	
4.72379	 18.615723	
4.75706	 18.637501	
4.79032	 18.655077	
4.82359	 18.637306	
4.85685	 18.633783	
4.89012	 18.682890	
4.92339	 18.646240	
4.95665	 18.612341	
4.98992	 18.682600	
5.02319	 18.640495	
5.05645	 18.661499	
5.08972	 18.701723	
5.12298	 18.661499	
5.15625	 18.650782	
5.18952	 18.717272	
5.22278	 18.656570	
5.25605	 18.656378	
5.28931	 18.712248	
5.32258	 18.692017	
5.35585	 18.671980	
5.38911	 18.696699	
5.42238	 18.666084	
5.45565	 18.670477	
5.48891	 18.707275	
5.52218	 18.676758	
5.55544	 18.678293	
5.58871	 18.715479	
5.62198	 18.696022	
5.65524	 18.695925	
5.68851	 18.726345	
5.72177	 18.688301	
5.75504	 18.749434	
5.78831	 18.726055	
5.82157	 18.707275	
5.85484	 18.725863	
5.8881	 18.756283	
5.92137	 18.692017	
5.95464	 18.740831	
5.9879	 18.753052	
6.02117	 18.712965	
6.05444	 18.735044	
6.0877	 18.704624	
6.12097	 18.597910	
6.15423	 18.663958	
6.1875	 18.676758	
6.22077	 18.676758	
6.25403	 18.678926	
6.2873	 18.709347	
6.32056	 18.720560	
6.35383	 18.705397	
6.3871	 18.692017	
6.42036	 18.703905	
6.45363	 18.692017	
6.4869	 18.722534	
6.52016	 18.650425	
6.55343	 18.737793	
6.58669	 18.737793	
6.61996	 18.706171	
6.65323	 18.737793	
6.68649	 18.767399	
6.71976	 18.692017	
6.75302	 18.722534	
6.78629	 18.721292	
6.81956	 18.706751	
6.85282	 18.693300	
6.88609	 18.691685	
6.91935	 18.661968	
6.95262	 18.767897	
6.98589	 18.676840	
7.01915	 18.661554	
7.05242	 18.722534	
7.08569	 18.677753	
7.11895	 18.691671	
7.15222	 18.721649	
7.18548	 18.662577	
7.21875	 18.706640	
7.25202	 18.692749	
7.28528	 18.662329	
7.31855	 18.705423	
7.35181	 18.708298	
7.38508	 18.705036	
7.41835	 18.675543	
7.45161	 18.705963	
7.48488	 18.647650	
7.51815	 18.635500	
7.55141	 18.675156	
7.58468	 18.673359	
7.61794	 18.569946	
7.65121	 18.615723	
7.68448	 18.659510	
7.71774	 18.644154	
7.75101	 18.665865	
7.78427	 18.659220	
7.81754	 18.572323	
7.85081	 18.676758	
7.88407	 18.559826	
7.91734	 18.613056	
7.9506	 18.689253	
7.98387	 18.597605	
8.01714	 18.582249	
8.0504	 18.704222	
8.08367	 18.688868	
8.11694	 18.615723	
8.1502	 18.681988	
8.18347	 18.664938	
8.21673	 18.700203	
8.25	 18.654232	
8.28327	 18.657770	
8.31653	 18.630981	
8.3498	 18.672834	
8.38306	 18.573967	
8.41633	 18.650356	
8.4496	 18.692017	
8.48286	 18.615723	
8.51613	 18.687611	
8.5494	 18.683010	
8.58266	 18.624922	
8.61593	 18.676758	
8.64919	 18.626188	
8.68246	 18.615723	
8.71573	 18.697302	
8.74899	 18.646240	
8.78226	 18.630981	
8.81552	 18.727240	
8.84879	 18.717161	
8.88206	 18.656029	
8.91532	 18.692017	
8.94859	 18.647972	
8.98185	 18.636742	
9.01512	 18.701418	
9.04839	 18.704674	
9.08165	 18.670708	
9.11492	 18.630981	
9.14819	 18.704504	
9.18145	 18.609383	
9.21472	 18.689632	
9.24798	 18.681141	
9.28125	 18.676758	
9.31452	 18.624254	
9.34778	 18.705664	
9.38105	 18.675341	
9.41431	 18.692017	
9.44758	 18.736761	
9.48085	 18.647078	
9.51411	 18.722534	
9.54738	 18.737341	
9.58065	 18.707275	
9.61391	 18.730131	
9.64718	 18.714970	
9.68044	 18.692017	
9.71371	 18.737793	
9.74698	 18.684742	
9.78024	 18.692017	
9.81351	 18.722534	
9.84677	 18.676758	
9.88004	 18.676758	
9.91331	 18.715742	
9.94657	 18.687191	
9.97984	 18.685419	
10.0131	 18.707275	
10.0464	 18.661499	
10.0796	 18.661499	
10.1129	 18.731581	
10.1462	 18.670643	
10.1794	 18.676758	
10.2127	 18.716614	
10.246	 18.682583	
10.2792	 18.657696	
10.3125	 18.707275	
10.3458	 18.661499	
10.379	 18.671320	
10.4123	 18.712616	
10.4456	 18.646240	
10.4788	 18.625834	
10.5121	 18.707275	
10.5454	 18.666454	
10.5786	 18.620581	
10.6119	 18.696777	
10.6452	 18.641577	
10.6784	 18.655376	
10.7117	 18.639923	
10.745	 18.611349	
10.7782	 18.532724	
10.8115	 18.607361	
10.8448	 18.626898	
10.878	 18.589193	
10.9113	 18.634872	
10.9446	 18.573740	
10.9778	 18.668894	
11.0111	 18.634583	
11.0444	 18.615723	
11.0776	 18.646240	
11.1109	 18.676758	
11.1442	 18.649454	
11.1774	 18.707275	
11.2107	 18.688995	
11.244	 18.661499	
11.2772	 18.664326	
11.3105	 18.674026	
11.3437	 18.676758	
11.377	 18.742868	
11.4103	 18.692017	
11.4435	 18.689672	
11.4768	 18.661499	
11.5101	 18.678907	
11.5433	 18.663553	
11.5766	 18.627068	
11.6099	 18.678617	
11.6431	 18.649767	
11.6764	 18.629314	
11.7097	 18.663069	
11.7429	 18.553213	
11.7762	 18.662876	
11.8095	 18.647520	
11.8427	 18.630981	
11.876	 18.692017	
11.9093	 18.723524	
11.9425	 18.615723	
11.9758	 18.631779	
12.0091	 18.720434	
12.0423	 18.646240	
12.0756	 18.663527	
12.1089	 18.722534	
12.1421	 18.677071	
12.1754	 18.737793	
12.2087	 18.646120	
12.2419	 18.646217	
12.2752	 18.722607	
12.3085	 18.631660	
12.3417	 18.631248	
12.375	 18.616085	
12.4083	 18.617104	
12.4415	 18.632095	
12.4748	 18.678719	
12.5081	 18.662998	
12.5413	 18.661499	
12.5746	 18.722534	
12.6079	 18.676758	
12.6411	 18.717987	
12.6744	 18.721300	
12.7077	 18.692017	
12.7409	 18.676758	
12.7742	 18.708799	
12.8075	 18.663118	
12.8407	 18.676758	
12.874	 18.718906	
12.9073	 18.661499	
12.9405	 18.661499	
12.9738	 18.735689	
13.0071	 18.687616	
13.0403	 18.674461	
13.0736	 18.717747	
13.1069	 18.704784	
13.1401	 18.674171	
13.1734	 18.707275	
13.2067	 18.679539	
13.2399	 18.667253	
13.2732	 18.719561	
13.3065	 18.676758	
13.3397	 18.661499	
13.373	 18.710539	
13.4062	 18.700554	
13.4395	 18.669844	
13.4728	 18.604017	
13.506	 18.585205	
13.5393	 18.577711	
13.5726	 18.615723	
13.6058	 18.634922	
13.6391	 18.618870	
13.6724	 18.729525	
13.7056	 18.668297	
13.7389	 18.657171	
13.7722	 18.713686	
13.8054	 18.672237	
13.8387	 18.693422	
13.872	 18.672043	
13.9052	 18.661499	
13.9385	 18.626074	
13.9718	 18.697268	
14.005	 18.600464	
14.0383	 18.651104	
14.0716	 18.651535	
14.1048	 18.651630	
14.1381	 18.722534	
14.1714	 18.646240	
14.2046	 18.712955	
14.2379	 18.707275	
14.2712	 18.676758	
14.3044	 18.692017	
14.3377	 18.743860	
14.371	 18.655334	
14.4042	 18.609461	
14.4375	 18.652597	
14.4708	 18.716080	
14.504	 18.639688	
14.5373	 18.715887	
14.5706	 18.714020	
14.6038	 18.683599	
14.6371	 18.737793	
14.6704	 18.715500	
14.7036	 18.683889	
14.7369	 18.722534	
14.7702	 18.707275	
14.8034	 18.707691	
14.8367	 18.722534	
14.87	 18.730148	
14.9032	 18.707275	
14.9365	 18.737793	
14.9698	 18.692568	
15.003	 18.699274	
15.0363	 18.761150	
15.0696	 18.692017	
15.1028	 18.692017	
15.1361	 18.724052	
15.1694	 18.708986	
15.2026	 18.685339	
15.2359	 18.715954	
15.2692	 18.683241	
15.3024	 18.698404	
15.3357	 18.700985	
15.369	 18.667692	
15.4022	 18.679823	
15.4355	 18.731792	
15.4687	 18.676758	
15.502	 18.667307	
15.5353	 18.707275	
15.5685	 18.676758	
15.6018	 18.676758	
15.6351	 18.681175	
15.6683	 18.686693	
15.7016	 18.635786	
15.7349	 18.646372	
15.7681	 18.615723	
15.8014	 18.580269	
15.8347	 18.662237	
15.8679	 18.656755	
15.9012	 18.565300	
15.9345	 18.696568	
15.9677	 18.667850	
16.001	 18.591751	
16.0343	 18.619982	
16.0675	 18.619886	
16.1008	 18.683884	
16.1341	 18.707275	
16.1673	 18.642366	
16.2006	 18.608017	
16.2339	 18.707275	
16.2671	 18.634565	
16.3004	 18.630981	
16.3337	 18.703886	
16.3669	 18.561274	
16.4002	 18.610054	
16.4335	 18.664598	
16.4667	 18.633986	
16.5	 18.630981	
16.5333	 18.636600	
16.5665	 18.587917	
16.5998	 18.717302	
16.6331	 18.722534	
16.6663	 18.541851	
16.6996	 18.727186	
16.7329	 18.633211	
16.7661	 18.617855	
16.7994	 18.621832	
16.8327	 18.751112	
16.8659	 18.705433	
16.8992	 18.751305	
16.9325	 18.725834	
16.9657	 18.707275	
16.999	 18.723989	
17.0323	 18.751692	
17.0655	 18.707275	
17.0988	 18.724867	
17.1321	 18.767241	
17.1653	 18.708248	
17.1986	 18.767435	
17.2319	 18.753052	
17.2651	 18.692699	
17.2984	 18.752466	
17.3317	 18.753052	
17.3649	 18.707275	
17.3982	 18.752756	
17.4315	 18.753052	
17.4647	 18.707172	
17.498	 18.753046	
17.5312	 18.752871	
17.5645	 18.707088	
17.5978	 18.723103	
17.631	 18.767550	
17.6643	 18.707275	
17.6976	 18.723108	
17.7308	 18.723877	
17.7641	 18.678293	
17.7974	 18.707275	
17.8306	 18.723495	
17.8639	 18.632040	
17.8972	 18.753052	
17.9304	 18.614471	
17.9637	 18.661499	
17.997	 18.710165	
18.0302	 18.586746	
18.0635	 18.573221	
18.0968	 18.630981	
18.13	 18.613892	
18.1633	 18.676758	
18.1966	 18.692017	
18.2298	 18.528412	
18.2631	 18.641804	
18.2964	 18.589834	
18.3296	 18.618134	
18.3629	 18.605480	
18.3962	 18.694622	
18.4294	 18.621126	
18.4627	 18.643442	
18.496	 18.704380	
18.5292	 18.658508	
18.5625	 18.573034	
18.5958	 18.722534	
18.629	 18.581924	
18.6623	 18.619101	
18.6956	 18.664974	
18.7288	 18.653383	
18.7621	 18.569946	
18.7954	 18.646240	
18.8286	 18.627119	
18.8619	 18.608381	
18.8952	 18.630981	
18.9284	 18.589357	
18.9617	 18.604712	
18.995	 18.672413	
19.0282	 18.672316	
19.0615	 18.600464	
19.0948	 18.702641	
19.128	 18.640446	
19.1613	 18.682360	
19.1946	 18.696941	
19.2278	 18.681973	
19.2611	 18.712297	
19.2944	 18.712103	
19.3276	 18.671446	
19.3609	 18.726976	
19.3942	 18.742041	
19.4274	 18.686415	
